<svg id="Layer_1" data-name="Layer 1" xmlns="http://www.w3.org/2000/svg" viewBox="0 0 320.25 366"><defs><style>.cls-1{fill:#fff;}</style></defs><title>discord</title><path class="cls-1" d="M137,134c-8.15,0-14.58,7.15-14.58,15.87S129,165.72,137,165.72s14.59-7.15,14.59-15.87S145.14,134,137,134Zm52.2,0c-8.15,0-14.59,7.15-14.59,15.87s6.58,15.87,14.59,15.87,14.58-7.15,14.58-15.87S197.34,134,189.19,134Z" transform="translate(-32.75 -17)"/><path class="cls-1" d="M315.49,17H70.26A37.61,37.61,0,0,0,32.75,54.7V302.11a37.6,37.6,0,0,0,37.51,37.7H277.79L268.09,306l23.42,21.77,22.15,20.5L353,383V54.7A37.61,37.61,0,0,0,315.49,17ZM244.85,256s-6.59-7.87-12.08-14.82c24-6.78,33.12-21.78,33.12-21.78a104.88,104.88,0,0,1-21,10.8,120.4,120.4,0,0,1-26.54,7.86,128.13,128.13,0,0,1-47.4-.18A153.38,153.38,0,0,1,144,230a106.78,106.78,0,0,1-13.36-6.22c-.54-.37-1.09-.55-1.64-.91a2.6,2.6,0,0,1-.73-.55c-3.3-1.83-5.13-3.11-5.13-3.11s8.79,14.64,32,21.59c-5.49,6.95-12.26,15.19-12.26,15.19-40.45-1.28-55.82-27.82-55.82-27.82,0-58.92,26.35-106.69,26.35-106.69,26.35-19.76,51.43-19.21,51.43-19.21l1.83,2.19c-32.94,9.52-48.13,24-48.13,24s4-2.2,10.79-5.31c19.58-8.6,35.14-11,41.55-11.53a18.19,18.19,0,0,1,3.11-.36,154.68,154.68,0,0,1,37-.37,149.19,149.19,0,0,1,55.09,17.57s-14.46-13.73-45.57-23.24l2.56-2.93s25.07-.55,51.42,19.21c0,0,26.36,47.77,26.36,106.69C300.85,228.18,285.29,254.72,244.85,256Z" transform="translate(-32.75 -17)"/></svg>