<svg id="Layer_1" data-name="Layer 1" xmlns="http://www.w3.org/2000/svg" viewBox="0 0 343 343"><defs><style>.cls-1{fill:#1da1f2;}</style></defs><title>website</title><path class="cls-1" d="M183.73,297.47v-45.6h-38C154,276.05,167.77,293.2,183.73,297.47Z" transform="translate(-23 -26)"/><path class="cls-1" d="M137.29,189.73h46.44V158.67H141.31A173.49,173.49,0,0,0,137.29,189.73Z" transform="translate(-23 -26)"/><path class="cls-1" d="M141.31,236.33h42.42V205.27H137.29A173.49,173.49,0,0,0,141.31,236.33Z" transform="translate(-23 -26)"/><path class="cls-1" d="M276.61,143.13a101.62,101.62,0,0,0-41.54-36.73c7.53,10,13.75,22.47,18.3,36.73Z" transform="translate(-23 -26)"/><path class="cls-1" d="M145.68,143.13h38V97.54C167.77,101.8,154,119,145.68,143.13Z" transform="translate(-23 -26)"/><path class="cls-1" d="M125.58,158.67H98.27a99.91,99.91,0,0,0-7.44,31.06h30.93A183.58,183.58,0,0,1,125.58,158.67Z" transform="translate(-23 -26)"/><path class="cls-1" d="M147.93,106.4a101.49,101.49,0,0,0-41.54,36.73h23.27C134.2,128.87,140.43,116.37,147.93,106.4Z" transform="translate(-23 -26)"/><path class="cls-1" d="M106.39,251.87a101.35,101.35,0,0,0,41.54,36.73c-7.52-10-13.75-22.47-18.28-36.73Z" transform="translate(-23 -26)"/><path class="cls-1" d="M121.76,205.27H90.83a99.91,99.91,0,0,0,7.44,31.06h27.31A183.58,183.58,0,0,1,121.76,205.27Z" transform="translate(-23 -26)"/><path class="cls-1" d="M323.13,26H65.88A42.9,42.9,0,0,0,23,68.88V326.13A42.89,42.89,0,0,0,65.88,369H323.13A42.89,42.89,0,0,0,366,326.13V68.88A42.89,42.89,0,0,0,323.13,26ZM308,197.5v7.77h-.28A116.46,116.46,0,0,1,199.27,313.72V314H183.73v-.28A116.48,116.48,0,0,1,75.26,205.27H75V189.73h.26A116.51,116.51,0,0,1,183.73,81.26V81h15.54v.26A116.48,116.48,0,0,1,307.72,189.73H308Z" transform="translate(-23 -26)"/><path class="cls-1" d="M257.42,236.33h27.31a99.62,99.62,0,0,0,7.43-31.06H261.24A183.58,183.58,0,0,1,257.42,236.33Z" transform="translate(-23 -26)"/><path class="cls-1" d="M235.07,288.6a101.47,101.47,0,0,0,41.54-36.73H253.37C248.82,266.13,242.57,278.62,235.07,288.6Z" transform="translate(-23 -26)"/><path class="cls-1" d="M257.42,158.67a183.58,183.58,0,0,1,3.82,31.06h30.93a99.91,99.91,0,0,0-7.44-31.06Z" transform="translate(-23 -26)"/><path class="cls-1" d="M199.27,97.54v45.59h38C229,119,215.22,101.8,199.27,97.54Z" transform="translate(-23 -26)"/><path class="cls-1" d="M241.67,158.67h-42.4v31.06h46.44A174.37,174.37,0,0,0,241.67,158.67Z" transform="translate(-23 -26)"/><path class="cls-1" d="M199.27,251.87v45.6c15.95-4.27,29.71-21.42,38-45.6Z" transform="translate(-23 -26)"/><path class="cls-1" d="M245.71,205.27H199.27v31.06h42.4A171.66,171.66,0,0,0,245.71,205.27Z" transform="translate(-23 -26)"/></svg>