<svg id="Layer_1" data-name="Layer 1" xmlns="http://www.w3.org/2000/svg" viewBox="0 0 78.66 127.76"><defs><style>.cls-1{fill:#1a1a1a;}.cls-1,.cls-2,.cls-3{fill-rule:evenodd;}.cls-2,.cls-4{fill:#db0000;}.cls-3{fill:#e6e6e6;}</style></defs><title>SiteWhereLogo</title><path class="cls-1" d="M76.71,62.06a38.11,38.11,0,0,0-6.61-30.7l-8.21,7.72a27,27,0,1,1-45.07.3L8.59,31.64a38.15,38.15,0,0,0-6.4,30.41c2.94,13.7,27.93,42.29,37.26,54.67,9.33-12.38,34.33-41,37.26-54.66"/><path class="cls-2" d="M67.07,27.75l-.67-.68a38.12,38.12,0,0,0-53.9,0c-.31.31-.61.63-.91.95l8.14,7.64c.21-.23.44-.47.67-.7a27,27,0,0,1,38.11,0l.43.44Z"/><path class="cls-2" d="M70.74,24.31c-.25-.27-.51-.54-.78-.8a43.15,43.15,0,0,0-61,0c-.35.35-.69.7-1,1.06L5.22,22,0,17.12c.41-.44.83-.87,1.25-1.3a54,54,0,0,1,76.4,0c.34.35.68.69,1,1L73.17,22Z"/><path class="cls-3" d="M39.26,122.77c15.14,0,27.42,1.12,27.42,2.5s-12.28,2.49-27.42,2.49-27.42-1.12-27.42-2.49,12.28-2.5,27.42-2.5"/><path class="cls-4" d="M25.86,70.8V62.27a16.31,16.31,0,0,0,10.51,3.89,12.41,12.41,0,0,0,2.84-.29,6.52,6.52,0,0,0,2-.82,3.46,3.46,0,0,0,1.2-1.21,3,3,0,0,0,.4-1.54,3.32,3.32,0,0,0-.63-2,6.74,6.74,0,0,0-1.75-1.63,16.66,16.66,0,0,0-2.62-1.43c-1-.47-2.1-.94-3.27-1.42a16.53,16.53,0,0,1-6.67-4.55,9.9,9.9,0,0,1-2.19-6.49,9.84,9.84,0,0,1,4.45-8.66,14.85,14.85,0,0,1,4.78-2,24.77,24.77,0,0,1,5.75-.65A36,36,0,0,1,46,33.8a20.71,20.71,0,0,1,4.24,1.11v8a13.13,13.13,0,0,0-2.09-1.17,17,17,0,0,0-2.33-.85,20.11,20.11,0,0,0-2.38-.49,18,18,0,0,0-2.25-.15,12.09,12.09,0,0,0-2.66.27,7.29,7.29,0,0,0-2,.79,4.14,4.14,0,0,0-1.28,1.21,2.87,2.87,0,0,0-.44,1.58,3,3,0,0,0,.5,1.72,5.63,5.63,0,0,0,1.44,1.45A15.73,15.73,0,0,0,39,48.55c.89.44,1.89.88,3,1.35a32.13,32.13,0,0,1,4.11,2,14.44,14.44,0,0,1,3.12,2.44,9.32,9.32,0,0,1,2,3.11,10.67,10.67,0,0,1,.69,4.05,10.91,10.91,0,0,1-1.2,5.37,9.8,9.8,0,0,1-3.29,3.51,14.1,14.1,0,0,1-4.83,1.93,28,28,0,0,1-5.82.58,32.76,32.76,0,0,1-6-.52,18.23,18.23,0,0,1-4.92-1.6"/></svg>