<svg id="Layer_1" data-name="Layer 1" xmlns="http://www.w3.org/2000/svg" viewBox="0 0 1920 1009.18"><defs><style>.cls-1{fill:#fff;opacity:0.75;isolation:isolate;}</style></defs><title>overlay</title><path class="cls-1" d="M946.82,59C257.69,57.66,0,37,0,37V1046.18s480.83-28.1,961.5-29.89,958.5,29.89,958.5,29.89V37S1636,60.27,946.82,59ZM352.24,776.38c-55.63,0-100.73-4.1-100.73-9.16s45.1-9.16,100.73-9.16S453,762.17,453,767.22,407.88,776.38,352.24,776.38ZM489.84,535C479.05,585.3,387.23,690.34,353,735.83,318.64,690.33,226.83,585.3,216,535a140.07,140.07,0,0,1,23.53-111.69l30.23,28.41a99,99,0,1,0,165.56-1.1l30.19-28.37A140.11,140.11,0,0,1,489.84,535Zm-126.77-6.41a24.58,24.58,0,0,0-6.41-6,62.13,62.13,0,0,0-9.65-5.28q-5.56-2.55-12-5.2-16.42-6.81-24.5-16.73t-8.05-23.84c0-7.31,1.44-13.58,4.38-18.83a37.42,37.42,0,0,1,12-13,54.5,54.5,0,0,1,17.56-7.48,90,90,0,0,1,21.13-2.4,128.34,128.34,0,0,1,19.43,1.33,76.27,76.27,0,0,1,15.6,4.07v29.25a47.57,47.57,0,0,0-7.68-4.31,64,64,0,0,0-8.58-3.1,64.28,64.28,0,0,0-17-2.37,44,44,0,0,0-9.78,1,25.84,25.84,0,0,0-7.44,2.9,14.71,14.71,0,0,0-4.71,4.44,10.65,10.65,0,0,0-1.64,5.81,11.06,11.06,0,0,0,1.84,6.31,21,21,0,0,0,5.31,5.31,58,58,0,0,0,8.31,4.88c3.24,1.6,6.94,3.23,11.05,4.94a122,122,0,0,1,15.09,7.47,53.22,53.22,0,0,1,11.48,8.95,35,35,0,0,1,7.35,11.42,39.73,39.73,0,0,1,2.54,14.89c0,7.84-1.47,14.39-4.44,19.73a35.77,35.77,0,0,1-12.09,12.89,52.11,52.11,0,0,1-17.73,7.11,102.52,102.52,0,0,1-21.4,2.13A119.08,119.08,0,0,1,321.07,573,66.05,66.05,0,0,1,303,567.1V535.79a60,60,0,0,0,38.63,14.28A45.33,45.33,0,0,0,352.05,549a24.56,24.56,0,0,0,7.45-3,12.88,12.88,0,0,0,4.44-4.47,11,11,0,0,0,1.47-5.64A12,12,0,0,0,363.07,528.58Zm-80.14-93.13c-.84.85-1.66,1.7-2.46,2.57l-29.89-28.09c1.09-1.17,2.21-2.34,3.35-3.47a140,140,0,0,1,198,0c.83.82,1.65,1.67,2.46,2.51l-29.89,28.09c-.52-.53-1-1.08-1.57-1.61A99,99,0,0,0,282.93,435.45Zm193.88-47.52-8.9,8.37c-.94-1-1.9-2-2.87-2.93a158.52,158.52,0,0,0-224.19,0c-1.28,1.28-2.52,2.57-3.75,3.89l-9.92-9.33L208,369.9c1.51-1.6,3-3.2,4.61-4.77,77.5-77.51,203.17-77.51,280.67,0,1.27,1.26,2.5,2.54,3.72,3.82Z" transform="translate(0 -37)"/></svg>