<svg id="Layer_1" data-name="Layer 1" xmlns="http://www.w3.org/2000/svg" viewBox="0 0 1160.9 358.36"><defs><style>.cls-1,.cls-4{fill:#db0000;}.cls-2,.cls-3{fill:#1a1a1a;}.cls-3,.cls-4,.cls-5{fill-rule:evenodd;}.cls-5{fill:#e6e6e6;}.cls-6{font-size:43.81px;}.cls-6,.cls-7,.cls-8{font-family:OpenSans, Open Sans;}.cls-7{font-size:13.74px;}.cls-8{font-size:23.68px;}</style></defs><title>sitewhere-with-tagline</title><path class="cls-1" d="M273.78,278.19V245.36a63.16,63.16,0,0,0,40.51,15,47.71,47.71,0,0,0,10.92-1.12,25.73,25.73,0,0,0,7.81-3.15,13.5,13.5,0,0,0,4.65-4.69,11.63,11.63,0,0,0,1.54-5.92,12.53,12.53,0,0,0-2.45-7.66,25.65,25.65,0,0,0-6.72-6.27A65.89,65.89,0,0,0,319.92,226q-5.82-2.67-12.6-5.45Q290.1,213.4,281.62,203t-8.43-25c0-7.66,1.5-14.24,4.59-19.74a39.3,39.3,0,0,1,12.56-13.62,57.27,57.27,0,0,1,18.42-7.84,94.19,94.19,0,0,1,22.15-2.52,135,135,0,0,1,20.38,1.4A79.05,79.05,0,0,1,367.64,140v30.66a50.61,50.61,0,0,0-8.06-4.51,66.86,66.86,0,0,0-9-3.25,67.34,67.34,0,0,0-17.82-2.49,46.24,46.24,0,0,0-10.26,1,27,27,0,0,0-7.8,3.05,15.27,15.27,0,0,0-4.94,4.65,11.15,11.15,0,0,0-1.71,6.09,11.53,11.53,0,0,0,1.92,6.62,22.25,22.25,0,0,0,5.57,5.57,61.79,61.79,0,0,0,8.71,5.11c3.4,1.68,7.28,3.39,11.59,5.18a127.44,127.44,0,0,1,15.82,7.84,55.59,55.59,0,0,1,12,9.38,36.86,36.86,0,0,1,7.71,12,42,42,0,0,1,2.65,15.62c0,8.22-1.53,15.08-4.65,20.68a37.52,37.52,0,0,1-12.67,13.52,54.52,54.52,0,0,1-18.59,7.45,107.61,107.61,0,0,1-22.44,2.24,124.28,124.28,0,0,1-23-2,69.42,69.42,0,0,1-18.94-6.16m323.67-37.63H528.94q1.63,22.84,28.81,22.86,17.32,0,30.46-8.19v23.38q-14.55,7.77-37.85,7.77-25.41,0-39.48-14.11t-14-39.31q0-26.15,15.19-41.44t37.32-15.27q22.95,0,35.53,13.62t12.57,37Zm-30-19.92q0-22.53-18.27-22.54c-5.18,0-9.7,2.13-13.48,6.44a29.39,29.39,0,0,0-6.93,16.1Zm-70.34,62q-7.19,3.78-21.63,3.78-34.23,0-34.27-35.56v-48.1h-17V178.81h17V156.16l32.31-9.24v31.89h23.59v23.91H473.48v42.46q0,16.38,13,16.38a21.79,21.79,0,0,0,10.57-3ZM400.9,162.18c-5.46,0-9.94-1.61-13.41-4.87a15.63,15.63,0,0,1-5.25-11.93,15.1,15.1,0,0,1,5.25-11.9q5.2-4.64,13.41-4.63c5.57,0,10.05,1.54,13.51,4.63a15.28,15.28,0,0,1,5.19,11.9,15.78,15.78,0,0,1-5.19,12.11C411,160.61,406.47,162.18,400.9,162.18Zm16,121.65H384.52v-105H416.9Z" transform="translate(-46.77 -42.23)"/><path class="cls-2" d="M891.8,283.83H859.49V224.14q0-23.1-16.84-23.07a17.16,17.16,0,0,0-13.93,6.44c-3.57,4.31-5.36,9.81-5.36,16.42v59.9H791V136.77h32.38v57.62h.42c8-12.08,18.69-18.14,32.31-18.14q35.71,0,35.71,43.06Z" transform="translate(-46.77 -42.23)"/><path class="cls-2" d="M1001.17,240.56H932.66q1.64,22.84,28.81,22.86,17.34,0,30.46-8.19v23.38q-14.55,7.77-37.84,7.77-25.41,0-39.49-14.11t-14-39.31q0-26.15,15.2-41.44t37.31-15.27q22.95,0,35.53,13.62t12.57,37Zm-30-19.92q0-22.51-18.28-22.54c-5.18,0-9.7,2.13-13.48,6.44a29.39,29.39,0,0,0-6.93,16.1Z" transform="translate(-46.77 -42.23)"/><path class="cls-2" d="M1180.68,240.56h-68.51q1.63,22.84,28.81,22.86,17.34,0,30.46-8.19v23.38q-14.55,7.77-37.85,7.77-25.41,0-39.48-14.11t-14-39.31a66.74,66.74,0,0,1,4.34-24.86l0-.14.15-.38a48.89,48.89,0,0,1,10.65-16.06q15.18-15.28,37.32-15.27,23,0,35.53,13.62t12.57,37Zm-30-19.92q0-22.51-18.27-22.54c-5.18,0-9.7,2.13-13.48,6.44a29.39,29.39,0,0,0-6.93,16.1Z" transform="translate(-46.77 -42.23)"/><path class="cls-2" d="M1078.38,207.58a34.21,34.21,0,0,0-13.66-2.73c-7,0-12.53,2.59-16.53,7.74s-6,12.18-6,21.07v50.17h-32.38v-105h32.38v14.45c5.39-12.13,14.77-16.31,28.11-16.31a21.17,21.17,0,0,1,8,1.23v29.4Z" transform="translate(-46.77 -42.23)"/><polygon class="cls-2" points="739.34 94.53 700.45 241.59 663.73 241.59 640.23 150.75 616.74 241.59 580.02 241.59 541.13 94.53 574.56 94.53 597.52 188.91 623.91 94.53 636.98 94.53 643.48 94.53 656.55 94.53 682.95 188.91 705.91 94.53 739.34 94.53"/><path class="cls-3" d="M228.4,189.16a90.3,90.3,0,0,0-15.66-72.69l-19.45,18.28a63.82,63.82,0,1,1-106.7.71L67.11,117.15a90.27,90.27,0,0,0-15.16,72c6.95,32.45,66.12,100.13,88.22,129.45,22.1-29.31,81.27-97,88.23-129.42" transform="translate(-46.77 -42.23)"/><path class="cls-4" d="M205.57,107.94,204,106.32a90.24,90.24,0,0,0-127.62,0c-.74.74-1.46,1.49-2.16,2.24l19.26,18.11c.52-.56,1-1.11,1.58-1.66a63.81,63.81,0,0,1,90.24,0c.35.34.68.69,1,1Z" transform="translate(-46.77 -42.23)"/><path class="cls-4" d="M214.26,99.78c-.61-.64-1.22-1.27-1.85-1.89a102.16,102.16,0,0,0-144.48,0c-.82.82-1.62,1.66-2.41,2.51l-6.39-6L46.77,82.77c1-1,1.95-2.07,3-3.08a127.9,127.9,0,0,1,180.88,0c.82.81,1.61,1.64,2.4,2.46L220,94.38Z" transform="translate(-46.77 -42.23)"/><path class="cls-5" d="M139.72,332.92c35.86,0,64.92,2.64,64.92,5.9s-29.06,5.9-64.92,5.9-64.91-2.64-64.91-5.9,29.06-5.9,64.91-5.9" transform="translate(-46.77 -42.23)"/><path class="cls-1" d="M108,209.85V189.67a38.71,38.71,0,0,0,24.9,9.21,29.22,29.22,0,0,0,6.71-.69,15.93,15.93,0,0,0,4.8-1.93,8.29,8.29,0,0,0,2.86-2.89,7.16,7.16,0,0,0,1-3.63A7.78,7.78,0,0,0,146.7,185a16,16,0,0,0-4.13-3.85,40.89,40.89,0,0,0-6.22-3.4q-3.58-1.64-7.75-3.35Q118,170,112.81,163.64a23.51,23.51,0,0,1-5.18-15.36,23.34,23.34,0,0,1,10.54-20.51A35.39,35.39,0,0,1,129.49,123a58,58,0,0,1,13.61-1.55,82.81,82.81,0,0,1,12.53.87,47.86,47.86,0,0,1,10.05,2.62v18.85a30.84,30.84,0,0,0-5-2.78,41.44,41.44,0,0,0-5.53-2,43.44,43.44,0,0,0-5.64-1.16,41.91,41.91,0,0,0-5.32-.37,28.43,28.43,0,0,0-6.3.65,16.64,16.64,0,0,0-4.8,1.87,9.48,9.48,0,0,0-3,2.86,6.84,6.84,0,0,0-1.05,3.74,7.07,7.07,0,0,0,1.18,4.07,13.84,13.84,0,0,0,3.42,3.42,36.2,36.2,0,0,0,5.36,3.14c2.08,1,4.47,2.09,7.12,3.19a77.22,77.22,0,0,1,9.72,4.82,34.15,34.15,0,0,1,7.4,5.76,22.61,22.61,0,0,1,4.74,7.36,29.42,29.42,0,0,1-1.23,22.31,23.09,23.09,0,0,1-7.79,8.31,33.54,33.54,0,0,1-11.42,4.58,66,66,0,0,1-13.79,1.38,76.62,76.62,0,0,1-14.14-1.25A42.78,42.78,0,0,1,108,209.85" transform="translate(-46.77 -42.23)"/><text class="cls-6" transform="translate(122.87 346.48)">The Open Platform for the Internet of Things</text><text class="cls-7" transform="translate(1033.3 320.21)">TM</text><text class="cls-8" transform="translate(1126.43 125.91)">TM</text></svg>