<svg id="Layer_1" data-name="Layer 1" xmlns="http://www.w3.org/2000/svg" viewBox="0 0 343 343"><defs><style>.cls-1{fill:#1da1f2;}</style></defs><title>twitter</title><path class="cls-1" d="M328.13,33H70.88A42.9,42.9,0,0,0,28,75.88V333.13A42.89,42.89,0,0,0,70.88,376H328.13A42.89,42.89,0,0,0,371,333.13V75.88A42.89,42.89,0,0,0,328.13,33ZM284.74,160.85c.08,1.89.08,3.78.08,5.66,0,58.06-44.25,125.11-125.11,125.11A125.13,125.13,0,0,1,92.4,272a86.28,86.28,0,0,0,10.46.6,88.2,88.2,0,0,0,54.62-18.87,44,44,0,0,1-41.07-30.53,43.94,43.94,0,0,0,19.81-.77A44.06,44.06,0,0,1,101,179.29v-.6a44.51,44.51,0,0,0,19.9,5.49,44.17,44.17,0,0,1-13.64-58.74,124.88,124.88,0,0,0,90.64,46,48.31,48.31,0,0,1-1.11-10,44,44,0,0,1,76.06-30.1,87.4,87.4,0,0,0,27.95-10.63A44.21,44.21,0,0,1,281.39,145a89.17,89.17,0,0,0,25.3-7A89.52,89.52,0,0,1,284.74,160.85Z" transform="translate(-28 -33)"/></svg>